<svg width="800" height="614" viewBox="0 0 800 614" fill="none" xmlns="http://www.w3.org/2000/svg">
<path d="M751.07 3.31876C744.664 1.33595 737.866 0.332825 730.667 0.332825H69.3328C62.1328 0.332825 55.3344 1.33595 48.9281 3.31876C20.4141 11.9078 0 38.1203 0 69.6672V544.334C0 563.519 7.55469 580.727 19.8828 593.203C20.3156 593.847 20.7891 594.456 21.3328 595C24.7937 598.114 28.5281 600.861 32.4578 603.234C42.2328 609.311 53.6734 613.022 66.0266 613.584C67.1281 613.638 68.2297 613.666 69.3313 613.666H730.664C731.766 613.666 732.867 613.638 733.967 613.584C771.064 611.895 800 581.892 800 544.333V69.6672C800 38.1203 779.584 11.9078 751.07 3.31876ZM773.333 69.6672V544.334C773.333 553.459 770.63 561.808 765.966 568.658L588.798 416.13C592.159 413.845 595.447 411.259 598.666 408.334C623.998 383.002 626.666 324.334 627.998 272.334C627.998 265.667 627.998 260.334 627.998 256.334C627.998 246.117 627.992 204.113 619.791 186.527L768.091 48.8203C771.439 54.9438 773.333 62.0344 773.333 69.6672ZM502.667 443L480 439C474.667 439 469.333 440.333 466.667 445.667L456 464.334L418.93 371.656C430.067 369.094 440.313 364.186 448.992 357.619C451.981 365.297 455.903 372.511 460.747 379.263C467.455 389.031 475.727 397.534 484.714 404.527L502.667 443ZM32.1813 565.661C28.6672 559.427 26.6672 552.167 26.6672 544.333V69.6672C26.6672 62.0344 28.5609 54.9453 31.9078 48.8203L182.928 189.053C174.569 206.464 173.386 247.478 174.666 259C174.666 261.667 174.666 268.333 174.666 275C174.666 327 178.666 385.667 203.998 411C205.288 412.145 206.631 413.234 208.009 414.284L32.1813 565.661ZM221.333 391C201.333 371 200 303 200 273.667C200 265.667 200 259 200 255C198.667 241.667 201.333 205.667 205.333 197.667C205.502 197.377 205.686 197.109 205.859 196.823C207.081 195.9 208.211 194.789 209.333 193.667C218.07 181.184 230.314 174.547 246.062 173.75C247.137 173.702 248.223 173.667 249.333 173.667C280 173.667 314.666 219 330.666 241.667C331.913 243.745 333.155 245.673 334.361 247.453C329.677 254.241 326.027 261.709 323.578 269.686L288 243C282.667 239 273.333 240.333 269.333 245.667C265.333 251.002 266.666 260.334 272 264.334L311.111 293.667L272 323C266.667 327 265.333 336.333 269.333 341.667C272 345.667 276 347 280 347C282.667 347 285.333 345.667 288 344.333L323.116 317.995C324.116 322.084 325.306 326.036 326.667 329.666C325.334 360.333 301.334 384.333 276 394.998C270.644 397.47 264.778 399.431 258.797 400.53C250.488 401.502 242.572 401.02 236 398.998C234.789 398.695 233.653 398.547 232.564 398.503C228.506 396.82 224.706 394.373 221.333 391ZM446.87 268.295C446.873 268.302 446.877 268.306 446.88 268.313C447.119 268.75 447.338 269.2 447.564 269.644C450.919 276.456 452.898 283.769 453.269 291.134C453.308 291.973 453.333 292.817 453.333 293.666C453.333 294.806 453.291 295.947 453.211 297.084C453.206 297.145 453.202 297.206 453.197 297.267C452.723 303.697 450.95 310.031 447.933 315.858C446.298 317.005 444.911 318.508 443.998 320.333C434.77 336.153 417.717 346.741 399.289 346.977C398.495 346.967 397.703 346.947 396.914 346.902C396.442 346.875 395.975 346.833 395.508 346.794C395.022 346.755 394.538 346.708 394.055 346.656C393.377 346.58 392.7 346.498 392.03 346.397C391.922 346.381 391.816 346.363 391.708 346.345C383.786 345.095 376.43 342.084 370.053 337.731C363.858 333.381 358.558 327.564 354.662 320.331C349.33 310.998 346.662 302.998 346.662 293.664C346.662 264.331 370.662 240.331 399.995 240.331C420.166 240.333 437.809 251.675 446.87 268.295ZM305.333 411.002C305.348 410.991 305.366 410.981 305.381 410.97C316.745 404.278 326.43 395.908 334.27 386.538C341.956 377.509 347.819 367.603 351.642 357.272C360.284 363.869 370.295 368.742 381.158 371.391L338.667 465.667L326.667 445.667C324 441.667 318.667 439 314.667 439C313.334 439 313.334 439 313.334 439L290.667 443L305.333 411.002ZM558.667 399C556.889 399.592 555.034 400.033 553.133 400.364C542.441 401.122 530.878 398.67 521.334 395C497.648 384.473 472.68 360.955 470.748 330.861C472.986 326.638 474.866 322.198 476.323 317.575L512 344.333C514.667 345.666 517.333 347 520 347C524 347 528 345.667 530.667 341.667C534.667 336.334 533.334 327 528 323L488.889 293.667L528 264.334C533.333 260.334 534.667 251.002 530.667 245.667C526.667 240.334 517.334 239 512 243L476.323 269.758C473.805 261.777 470.048 254.336 465.305 247.638C466.614 245.881 467.972 243.938 469.333 241.667C485.25 219.119 519.639 174.155 550.187 173.689C550.517 173.694 550.842 173.706 551.169 173.714C562.667 174.655 572.387 177.395 580.333 183.106C585.103 186.848 589.016 191.7 592 197.667C596 205.667 598.667 241.667 597.333 255C597.333 259 597.333 265.667 597.333 273.667C597.333 303 596 371 576 391C572.394 394.606 568.003 397.034 563.178 398.536C561.591 398.416 560.047 398.539 558.667 399ZM730.667 27C731.452 27 732.214 27.0219 732.963 27.0594C733.336 27.0781 733.703 27.1125 734.073 27.1406C734.475 27.1703 734.881 27.1953 735.275 27.2375C735.467 27.2578 735.655 27.286 735.845 27.3078C740.236 27.8375 744.122 29.0609 748 31.0016L604.131 165.631C590.63 152.959 572.645 145.669 552 145.669H550.667C525.725 145.669 503.358 161.525 484.53 180.6C469.57 195.498 456.788 212.573 446.667 225.669C446.667 226.841 445.639 226.984 445.389 227.908C434.044 220.039 420.594 215.033 406.091 213.927C406.003 213.919 405.917 213.914 405.83 213.906C405.02 213.847 404.211 213.791 403.395 213.756C402.264 213.703 401.133 213.67 400.002 213.67C398.87 213.67 397.739 213.705 396.608 213.756C395.792 213.791 394.983 213.848 394.173 213.906C394.086 213.913 394 213.919 393.913 213.927C379.619 215.017 366.341 219.888 355.1 227.561C354.956 227.372 354.814 227.194 354.669 227.002C344.609 213.984 331.658 196.772 316.52 181.759C297.269 162.342 274.384 146.242 249.334 147.002C224.002 148.334 208.002 156.334 197.334 167.002L52 31C55.8781 29.061 59.7641 27.836 64.1547 27.3063C64.3453 27.2844 64.5328 27.2563 64.725 27.2359C65.1187 27.1938 65.525 27.1703 65.9281 27.1391C66.2984 27.1109 66.6656 27.0766 67.0391 27.0578C67.7875 27.0203 68.55 26.9985 69.3344 26.9985L730.667 27ZM69.3328 587C65.0078 587 60.6828 586.12 56.3563 585.078C55.4156 584.789 54.4937 584.461 53.5844 584.113L232.781 426.153C238.409 427.563 244.383 428.334 250.666 428.334C256.956 428.334 263.252 427.581 269.734 426.117L255.998 456.334C253.331 460.334 254.666 465.667 257.331 469.667C261.331 473.667 265.331 476.334 270.664 475L309.331 468.333L329.331 501.666C331.998 505.666 335.998 508.333 341.331 508.333C346.664 508.333 350.664 504.333 353.331 500.333L401.331 395L442.664 500.333C443.997 504.333 447.997 508.333 454.664 508.333C458.664 508.333 463.997 507 466.664 501.666L486.664 468.333L519.997 473.666C525.33 473.666 530.664 472.333 533.33 468.333C535.997 464.333 537.33 459 534.662 455L519.803 423.344C529.606 426.653 539.877 428.333 549.328 428.333C554.795 428.333 560.028 427.744 565.07 426.6L746.406 584.111C745.497 584.459 744.577 584.788 743.638 585.077C739.313 586.119 734.987 586.998 730.661 586.998H69.3328V587Z" fill="white"/>
</svg>
